<svg width="1172" height="500" viewBox="0 0 1172 500" fill="none" xmlns="http://www.w3.org/2000/svg">
<circle cx="250" cy="250" r="250" fill="url(#paint0_linear_11_5)"/>
<path d="M136.886 351H64.6989V147.364H137.483C157.966 147.364 175.598 151.44 190.381 159.594C205.163 167.681 216.531 179.314 224.486 194.494C232.507 209.674 236.517 227.837 236.517 248.983C236.517 270.195 232.507 288.424 224.486 303.67C216.531 318.917 205.097 330.616 190.182 338.77C175.333 346.923 157.568 351 136.886 351ZM107.753 314.111H135.097C147.824 314.111 158.529 311.857 167.213 307.349C175.963 302.776 182.526 295.716 186.901 286.17C191.342 276.559 193.562 264.163 193.562 248.983C193.562 233.936 191.342 221.639 186.901 212.094C182.526 202.548 175.996 195.522 167.312 191.014C158.629 186.507 147.923 184.253 135.196 184.253H107.753V314.111ZM268.41 351V147.364H405.626V182.861H311.464V231.384H398.566V266.881H311.464V315.503H406.023V351H268.41ZM610.182 147.364V351H572.994L484.401 222.832H482.909V351H439.855V147.364H477.639L565.537 275.432H567.327V147.364H610.182ZM816.08 147.364V351H778.893L690.299 222.832H688.808V351H645.754V147.364H683.538L771.435 275.432H773.225V147.364H816.08ZM894.706 147.364V351H851.652V147.364H894.706ZM1040.6 205.929C1039.8 197.908 1036.39 191.677 1030.36 187.236C1024.32 182.794 1016.14 180.574 1005.8 180.574C998.77 180.574 992.837 181.568 987.998 183.557C983.159 185.479 979.447 188.164 976.862 191.611C974.343 195.058 973.083 198.969 973.083 203.344C972.951 206.99 973.713 210.171 975.37 212.889C977.094 215.607 979.447 217.96 982.43 219.949C985.413 221.871 988.86 223.562 992.771 225.02C996.682 226.412 1000.86 227.605 1005.3 228.599L1023.59 232.974C1032.48 234.963 1040.63 237.615 1048.05 240.929C1055.48 244.243 1061.91 248.32 1067.34 253.159C1072.78 257.998 1076.99 263.699 1079.97 270.261C1083.02 276.824 1084.58 284.348 1084.65 292.832C1084.58 305.295 1081.4 316.099 1075.1 325.247C1068.87 334.329 1059.85 341.388 1048.05 346.426C1036.32 351.398 1022.17 353.884 1005.6 353.884C989.158 353.884 974.84 351.365 962.643 346.327C950.512 341.289 941.033 333.831 934.205 323.955C927.444 314.011 923.897 301.715 923.566 287.065H965.228C965.692 293.893 967.647 299.594 971.094 304.168C974.608 308.675 979.281 312.089 985.114 314.409C991.014 316.663 997.676 317.79 1005.1 317.79C1012.39 317.79 1018.72 316.729 1024.09 314.608C1029.53 312.487 1033.74 309.537 1036.72 305.759C1039.7 301.98 1041.19 297.638 1041.19 292.733C1041.19 288.159 1039.83 284.314 1037.12 281.199C1034.47 278.083 1030.55 275.432 1025.38 273.244C1020.28 271.057 1014.02 269.068 1006.59 267.278L984.418 261.71C967.25 257.534 953.694 251.005 943.751 242.122C933.808 233.24 928.869 221.275 928.935 206.227C928.869 193.898 932.15 183.126 938.779 173.912C945.474 164.698 954.655 157.506 966.322 152.335C977.988 147.165 991.246 144.58 1006.09 144.58C1021.21 144.58 1034.4 147.165 1045.67 152.335C1057 157.506 1065.82 164.698 1072.12 173.912C1078.41 183.126 1081.66 193.798 1081.86 205.929H1040.6Z" fill="#252525"/>
<defs>
<linearGradient id="paint0_linear_11_5" x1="250" y1="0" x2="250" y2="500" gradientUnits="userSpaceOnUse">
<stop stop-color="#FF9966"/>
<stop offset="1" stop-color="#FF5E62" stop-opacity="0.4"/>
</linearGradient>
</defs>
</svg>
